<?xml version="1.0" standalone="no"?>
<!DOCTYPE svg PUBLIC "-//W3C//DTD SVG 20010904//EN"
 "http://www.w3.org/TR/2001/REC-SVG-20010904/DTD/svg10.dtd">
<svg version="1.0" xmlns="http://www.w3.org/2000/svg"
 width="398.000000pt" height="398.000000pt" viewBox="0 0 398.000000 398.000000"
 preserveAspectRatio="xMidYMid meet">
<metadata>
Created by potrace 1.11, written by Peter Selinger 2001-2013
</metadata>
<g transform="translate(0.000000,398.000000) scale(0.100000,-0.100000)"
fill="#000000" stroke="none">
<path d="M0 3368 c0 -368 4 -607 10 -599 4 8 6 45 3 83 -6 70 4 88 24 46 19
-39 22 -57 13 -63 -14 -9 -7 -63 7 -58 7 3 15 -6 18 -20 4 -14 14 -28 22 -31
11 -4 13 -2 9 9 -3 8 -1 25 4 37 6 15 8 -33 7 -140 -1 -91 -6 -163 -11 -165
-6 -1 -9 41 -7 103 1 58 -1 102 -4 98 -9 -9 -12 -29 -24 -171 -6 -68 -5 -121
0 -143 10 -34 25 -50 17 -16 -3 9 1 31 8 47 l13 30 1 -47 c0 -26 -4 -49 -9
-52 -5 -3 -7 -16 -3 -28 3 -13 1 -19 -5 -15 -13 8 -29 -10 -34 -38 -2 -10 -15
-22 -29 -26 -23 -6 -22 -7 8 -8 17 -1 41 -10 52 -21 20 -20 20 -20 64 5 25 14
48 25 53 25 4 -1 26 -30 48 -66 74 -120 95 -139 95 -86 0 15 4 33 9 40 15 24
31 -12 57 -129 27 -120 60 -184 112 -216 15 -9 29 -18 31 -19 3 -3 31 -134 36
-169 1 -11 7 -32 13 -48 9 -20 9 -34 0 -52 -14 -32 2 -56 25 -37 13 11 12 66
-2 87 -4 6 -8 26 -10 45 -1 19 -9 64 -16 100 -13 63 -12 85 5 75 23 -14 17 45
-18 205 -24 106 -22 359 2 399 4 6 14 11 22 11 9 0 14 11 14 34 0 37 19 59 47
54 12 -2 19 4 21 20 2 12 10 22 18 22 12 0 13 6 7 23 -14 39 -7 86 15 110 18
19 20 28 12 60 -4 21 -14 44 -20 52 -8 10 -11 31 -7 59 4 23 2 47 -2 52 -5 5
-11 29 -14 54 -4 37 -20 95 -55 190 -3 8 -7 25 -9 36 -2 12 -15 59 -28 105
-14 45 -25 90 -25 99 0 9 -12 27 -26 41 -24 22 -26 29 -20 81 3 34 20 88 42
135 20 43 47 101 59 128 13 28 35 67 50 89 32 47 43 95 25 106 -12 7 -11 13 0
37 8 15 16 31 18 36 5 9 -580 9 -593 -1 -5 -4 -10 -13 -11 -19 -5 -58 -15 -69
-48 -48 -18 12 -26 26 -26 46 0 26 -4 29 -30 29 l-30 0 0 -612z m70 405 c0 -5
-5 -15 -10 -23 -8 -12 -10 -11 -10 8 0 12 5 22 10 22 6 0 10 -3 10 -7z m-9
-615 c4 -165 0 -187 -26 -152 -12 17 -12 20 2 31 14 11 14 13 1 18 -11 4 -15
18 -13 43 6 81 34 129 36 60z"/>
<path d="M1277 3958 c-9 -13 -27 -36 -41 -52 -30 -33 -28 -43 4 -26 12 6 26 8
33 3 17 -12 66 -7 112 11 22 8 57 15 78 16 25 0 37 5 37 14 0 12 32 32 80 49
8 3 -29 6 -83 6 -54 1 -107 -4 -118 -9 -13 -7 -19 -7 -19 0 0 5 -15 10 -34 10
-24 0 -38 -7 -49 -22z m56 -10 c-13 -12 -25 -19 -29 -15 -10 10 16 37 34 37
13 0 12 -4 -5 -22z"/>
<path d="M1630 3960 c0 -21 15 -27 25 -9 4 6 17 14 29 19 17 7 15 9 -16 9 -32
1 -38 -2 -38 -19z"/>
<path d="M1730 3965 c9 -11 10 -18 1 -28 -8 -11 -6 -18 9 -32 11 -10 20 -16
20 -13 0 3 19 2 43 -3 23 -4 58 -4 77 1 19 5 75 11 124 15 100 6 124 10 181
32 22 8 51 17 64 20 14 2 32 8 40 13 10 6 -95 10 -278 10 -260 0 -292 -2 -281
-15z"/>
<path d="M2830 3973 c0 -3 7 -14 15 -23 8 -8 17 -45 20 -80 8 -95 15 -128 31
-141 12 -9 14 -4 14 30 0 37 2 41 26 41 22 0 24 3 19 23 -8 23 -8 26 -6 43 1
14 67 12 82 -3 6 -6 12 -23 12 -37 0 -14 3 -26 8 -26 5 0 6 -13 3 -29 -6 -29
-5 -29 31 -27 45 4 63 -13 71 -65 4 -22 11 -42 15 -45 12 -7 11 -51 -1 -59 -5
-3 -10 -18 -9 -33 0 -15 3 -21 6 -14 8 19 23 14 23 -8 0 -11 -5 -20 -11 -20
-7 0 0 -12 15 -26 30 -31 32 -56 10 -109 -8 -20 -13 -44 -11 -53 3 -12 5 -11
6 4 2 31 25 48 40 30 9 -11 9 -15 -1 -19 -10 -3 -10 -9 1 -28 10 -16 10 -24 2
-27 -7 -2 -6 -9 4 -19 16 -15 21 -74 8 -87 -5 -4 -8 -17 -8 -29 0 -14 -8 -23
-25 -28 -14 -4 -19 -7 -12 -8 6 -1 12 -5 12 -11 0 -5 -10 -8 -22 -6 -13 1 -23
8 -23 14 0 7 -3 12 -7 12 -5 0 -15 0 -24 0 -8 0 -13 -3 -10 -8 2 -4 -28 -6
-67 -4 -40 2 -76 3 -82 3 -142 -2 -185 -5 -185 -11 0 -4 -18 -10 -40 -12 -28
-2 -40 0 -40 9 0 8 -13 13 -33 13 -18 0 -38 5 -45 12 -9 9 -15 9 -24 -1 -11
-11 -10 -13 4 -8 25 9 12 -18 -17 -33 -13 -7 -31 -10 -39 -7 -10 4 -16 1 -16
-9 0 -8 -7 -17 -15 -20 -11 -5 -12 -10 -4 -26 6 -11 8 -22 5 -26 -3 -3 -6 0
-6 6 0 7 -9 12 -20 12 -11 0 -20 -6 -20 -12 0 -10 -2 -10 -8 -1 -7 10 -14 10
-35 0 -31 -14 -57 -62 -57 -104 0 -17 -9 -38 -19 -47 -28 -26 -34 -56 -10 -56
10 0 19 -4 19 -10 0 -5 -7 -7 -15 -4 -10 4 -15 0 -15 -15 0 -12 8 -25 18 -28
9 -4 21 -11 25 -17 5 -6 6 1 3 16 -5 21 -3 26 8 22 8 -3 30 -1 49 4 30 8 38 7
53 -9 13 -15 20 -16 31 -7 11 9 17 9 24 -3 8 -13 10 -12 13 10 2 19 16 23 22
7 7 -19 30 -21 37 -3 4 10 6 10 6 0 1 -16 53 -17 69 -1 9 9 12 8 12 -6 0 -27
17 -10 23 24 5 22 10 28 23 23 11 -4 22 1 30 12 13 17 14 17 14 2 0 -9 4 -17
9 -17 5 0 7 9 4 20 -4 15 0 20 13 21 11 0 27 2 37 4 9 2 17 -1 17 -6 0 -13 34
-11 48 3 9 9 15 9 24 0 9 -9 8 -12 -5 -12 -9 0 -17 -5 -17 -11 0 -6 7 -9 15
-6 8 4 17 2 20 -3 4 -6 -2 -10 -13 -10 -10 0 -28 -9 -40 -20 -13 -12 -35 -20
-56 -20 -23 0 -39 -7 -48 -18 -7 -11 -31 -22 -53 -26 -22 -4 -43 -13 -47 -19
-5 -8 -8 -6 -8 6 0 9 -7 17 -15 17 -8 0 -15 -7 -15 -15 0 -8 -9 -19 -20 -25
-17 -9 -19 -8 -13 7 6 16 4 16 -15 -1 -14 -12 -22 -31 -22 -53 0 -18 -4 -33
-9 -33 -13 0 -21 27 -15 45 4 8 1 15 -5 15 -6 0 -11 -14 -11 -30 0 -19 -6 -33
-16 -37 -8 -3 -13 -11 -10 -18 2 -7 -10 -18 -28 -25 -27 -10 -32 -17 -28 -36
4 -20 1 -23 -14 -17 -13 5 -16 3 -11 -10 5 -12 1 -17 -13 -17 -11 0 -20 -7
-20 -15 0 -8 9 -15 20 -15 11 0 20 -4 20 -10 0 -5 -9 -10 -19 -10 -11 0 -23
-4 -26 -10 -3 -5 2 -10 12 -10 15 0 16 -2 3 -10 -19 -12 -6 -25 17 -15 23 10
31 11 70 1 32 -7 33 -9 26 -49 -10 -67 -9 -72 12 -72 15 0 20 7 20 27 1 26 20
58 36 58 4 0 17 -20 28 -44 10 -24 30 -52 44 -61 55 -36 255 -39 289 -4 8 7
22 28 32 44 15 26 75 75 91 75 3 0 5 -6 5 -14 0 -18 13 -16 77 14 44 21 52 28
46 45 -22 70 -29 134 -16 151 11 15 10 20 -6 35 -24 23 -17 59 11 59 17 0 18
3 8 15 -6 8 -9 19 -5 25 3 5 0 18 -7 27 -12 17 -23 22 -55 27 -32 5 -22 16 15
16 22 0 43 -4 47 -9 3 -5 18 -12 33 -16 15 -3 33 -14 40 -25 11 -17 10 -20 -7
-20 -11 0 -23 -4 -26 -10 -3 -6 5 -10 19 -10 14 0 28 5 31 10 3 6 15 10 26 10
10 0 19 -4 19 -10 0 -5 -7 -10 -16 -10 -8 0 -12 -4 -9 -10 3 -5 1 -10 -6 -10
-10 0 -10 -3 -1 -12 8 -8 16 -5 31 13 11 13 20 18 21 12 0 -7 7 -13 16 -13 11
0 14 6 9 20 -9 29 14 25 25 -5 11 -29 20 -34 13 -7 -3 12 1 19 10 19 9 0 13
-6 10 -14 -3 -7 0 -13 7 -13 6 0 9 -4 6 -9 -3 -5 0 -29 8 -54 8 -25 11 -48 8
-51 -2 -3 3 -8 12 -12 18 -7 22 -30 6 -36 -7 -2 -5 -16 6 -37 19 -38 21 -103
10 -287 -8 -134 -2 -172 45 -292 5 -13 9 -31 9 -42 0 -24 18 -36 33 -21 8 8 7
15 -4 26 -13 13 -14 29 -7 88 5 40 15 88 22 107 9 24 11 43 5 59 -10 25 -3 61
10 61 4 0 16 -9 27 -21 l19 -21 5 24 c4 17 15 24 40 29 19 3 42 2 50 -2 8 -3
30 -9 48 -13 29 -5 35 -3 39 15 6 20 6 20 27 -3 27 -32 71 -60 79 -51 4 3 7
30 7 60 0 46 -3 53 -20 53 -10 0 -24 8 -29 19 -7 12 -27 21 -58 26 -26 5 -52
9 -58 10 -5 1 -16 3 -22 3 -15 2 -17 41 -4 75 12 31 53 72 90 92 31 16 41 12
41 -17 0 -11 7 -18 20 -18 13 0 20 -7 20 -19 0 -11 5 -23 10 -26 7 -4 9 125 8
392 l-3 398 -22 3 c-30 4 -29 26 2 40 27 12 33 40 13 60 -9 9 -9 12 0 12 7 0
12 11 12 25 0 29 -5 30 -40 10 -14 -8 -33 -14 -44 -15 -15 0 -16 3 -6 15 7 8
18 15 24 15 7 0 24 13 39 28 l27 28 0 317 0 317 -575 0 c-316 0 -575 -3 -575
-7z m352 -1176 c21 -26 22 -37 6 -37 -7 0 -23 -3 -35 -6 -18 -5 -21 -2 -17 13
4 14 -3 22 -31 31 -19 8 -33 18 -29 23 10 17 87 -1 106 -24z m-178 -17 c-6 -6
-10 -2 -11 12 -2 16 1 18 10 9 7 -7 8 -14 1 -21z m116 -30 c0 -5 -4 -10 -9
-10 -6 0 -13 5 -16 10 -3 6 1 10 9 10 9 0 16 -4 16 -10z m160 -30 c0 -5 -5
-10 -11 -10 -5 0 -7 5 -4 10 3 6 8 10 11 10 2 0 4 -4 4 -10z m-630 -90 c0 -5
-4 -10 -10 -10 -5 0 -10 5 -10 10 0 6 5 10 10 10 6 0 10 -4 10 -10z"/>
<path d="M1399 2894 c-7 -8 -16 -11 -23 -6 -6 5 -22 6 -36 2 -14 -4 -35 -3
-48 2 -15 5 -21 4 -17 -2 3 -6 -1 -10 -9 -10 -9 0 -15 -3 -14 -7 1 -5 -2 -20
-6 -34 -6 -22 -16 -28 -59 -36 -29 -5 -51 -13 -50 -19 1 -6 -17 -9 -45 -8 -43
3 -50 0 -83 -36 -21 -22 -39 -54 -43 -75 -4 -19 -12 -35 -17 -35 -6 0 -3 -8 7
-17 13 -13 19 -14 22 -5 2 6 15 12 28 12 13 0 24 6 24 13 0 8 3 8 8 1 12 -17
134 -41 167 -33 17 4 49 12 71 18 58 15 96 14 123 -5 19 -14 25 -14 32 -3 5 8
9 9 9 3 0 -7 9 -14 20 -17 15 -4 20 -14 20 -37 0 -19 7 -38 17 -45 30 -22 6
-33 -60 -28 -34 2 -74 9 -89 15 -18 6 -32 6 -46 -1 -11 -6 -23 -6 -28 -1 -9 8
-37 13 -63 11 -7 0 -11 -7 -8 -14 3 -8 0 -14 -6 -15 -7 -1 -31 -4 -55 -6 -31
-3 -52 -13 -74 -35 -18 -17 -37 -31 -42 -31 -6 0 -22 -12 -35 -26 -21 -22 -22
-28 -11 -49 9 -17 10 -31 3 -52 -10 -28 3 -123 20 -150 12 -19 48 -15 76 6 19
15 30 17 47 9 34 -16 48 -5 61 45 10 34 20 49 48 66 20 11 40 21 45 21 5 0 9
-22 9 -48 -2 -58 26 -118 73 -157 30 -25 36 -27 93 -20 58 6 182 51 221 79 13
10 18 24 16 51 -4 54 9 64 62 52 61 -14 80 -5 72 34 -3 16 -2 28 2 25 4 -2 8
7 8 20 1 13 -2 21 -7 18 -5 -3 -10 1 -10 8 -3 27 -4 34 -18 57 -27 48 -87 96
-116 93 -18 -2 -25 -8 -21 -17 8 -21 -9 -27 -38 -14 -29 13 -34 29 -11 29 8 0
15 5 15 10 0 14 -20 12 -50 -5 -14 -8 -33 -14 -42 -15 -20 0 -25 30 -5 31 6 0
3 4 -7 8 -30 12 -31 54 -1 67 19 9 27 9 36 -2 8 -9 16 -11 23 -5 19 16 40 -3
27 -25 -6 -12 -11 -14 -11 -5 0 11 -3 11 -15 1 -19 -16 -3 -30 25 -23 10 3 21
0 24 -6 9 -13 46 -15 46 -2 0 5 -6 12 -12 15 -7 3 -4 4 7 3 12 -1 19 3 17 10
-1 7 7 22 19 34 20 20 22 20 40 3 18 -16 19 -16 19 5 0 12 -4 19 -10 16 -13
-8 -13 -2 1 28 8 18 8 30 1 43 -10 18 -11 18 -18 0 -4 -11 -2 -21 7 -27 15 -9
12 -11 -23 -12 -12 -1 -23 4 -26 11 -2 7 3 12 11 12 21 0 29 27 15 50 -9 14
-9 25 0 45 7 14 16 24 21 21 5 -4 7 4 3 16 -3 14 -2 19 6 14 17 -10 15 3 -2
20 -8 8 -22 14 -30 14 -9 0 -16 6 -16 13 0 6 -6 3 -12 -8 -16 -30 -16 -30 -37
-11 -18 16 -20 16 -34 -4 l-15 -21 -41 21 c-23 11 -46 18 -51 15 -6 -3 -10 -2
-10 3 0 10 -49 42 -82 54 -9 4 -22 0 -29 -8z m-119 -44 c0 -5 -5 -10 -11 -10
-5 0 -7 5 -4 10 3 6 8 10 11 10 2 0 4 -4 4 -10z m430 -110 c0 -5 -2 -10 -4
-10 -3 0 -8 5 -11 10 -3 6 -1 10 4 10 6 0 11 -4 11 -10z m-25 -120 c-3 -5 -12
-10 -18 -10 -7 0 -6 4 3 10 19 12 23 12 15 0z m-4 -51 c-5 -13 -10 -19 -10
-12 -1 15 10 45 15 40 3 -2 0 -15 -5 -28z m-31 -19 c0 -5 -5 -10 -11 -10 -5 0
-7 5 -4 10 3 6 8 10 11 10 2 0 4 -4 4 -10z m-47 -105 c-3 -9 -8 -14 -10 -11
-3 3 -2 9 2 15 9 16 15 13 8 -4z"/>
<path d="M1790 2690 c0 -5 6 -10 14 -10 8 0 18 5 21 10 3 6 -3 10 -14 10 -12
0 -21 -4 -21 -10z"/>
<path d="M2 2660 c0 -14 2 -19 5 -12 2 6 2 18 0 25 -3 6 -5 1 -5 -13z"/>
<path d="M880 2609 c-9 -16 -14 -18 -25 -9 -12 10 -14 5 -10 -35 l5 -47 -20
23 c-23 29 -26 19 -5 -21 20 -38 33 -38 69 0 35 37 44 110 14 110 -9 0 -22 -9
-28 -21z"/>
<path d="M1025 2610 c-3 -5 -1 -10 4 -10 6 0 11 5 11 10 0 6 -2 10 -4 10 -3 0
-8 -4 -11 -10z"/>
<path d="M3360 2609 c0 -5 9 -9 20 -9 11 0 20 2 20 4 0 2 -9 6 -20 9 -11 3
-20 1 -20 -4z"/>
<path d="M1535 2550 c-3 -5 1 -10 9 -10 9 0 16 5 16 10 0 6 -4 10 -9 10 -6 0
-13 -4 -16 -10z"/>
<path d="M0 2229 c0 -5 5 -7 10 -4 5 3 10 8 10 11 0 2 -4 4 -10 4 -5 0 -10 -5
-10 -11z"/>
<path d="M2750 2090 c0 -5 7 -10 16 -10 8 0 12 5 9 10 -3 6 -10 10 -16 10 -5
0 -9 -4 -9 -10z"/>
<path d="M2395 1441 c-18 -8 -95 -72 -153 -128 -13 -13 -27 -23 -32 -23 -13 0
-77 39 -138 83 -63 46 -111 57 -147 33 -31 -20 -32 -54 -4 -87 l21 -24 -57 -5
-57 -5 26 -24 c33 -31 141 -44 200 -24 23 9 55 12 77 8 24 -4 47 -1 66 8 20
11 54 15 108 13 73 -1 181 17 211 36 7 4 14 17 17 27 4 18 1 19 -26 14 -26 -5
-29 -4 -24 11 19 50 18 64 -4 80 -25 17 -52 19 -84 7z"/>
<path d="M564 1341 c3 -5 -10 -21 -29 -37 -51 -40 -47 -57 13 -48 26 4 67 8
91 8 52 1 66 21 24 36 -15 6 -45 20 -66 31 -21 11 -36 15 -33 10z"/>
<path d="M267 1140 c-10 -16 -24 -30 -32 -30 -8 0 -31 -9 -52 -21 -28 -16 -47
-19 -76 -15 l-38 6 3 -32 c3 -32 2 -33 -35 -31 l-37 2 0 -169 0 -168 45 1 c51
2 49 -2 69 116 8 46 27 107 41 137 22 45 34 57 82 81 57 28 83 62 98 126 7 25
5 27 -22 27 -21 0 -33 -8 -46 -30z"/>
<path d="M2602 983 c-17 -7 -62 -52 -62 -62 0 -4 -13 -19 -28 -34 -34 -32 -70
-35 -101 -6 -29 27 -116 31 -151 6 -31 -22 -47 -21 -103 3 l-45 20 -70 -23
c-54 -18 -76 -21 -90 -13 -11 6 -17 17 -15 24 3 7 -5 12 -22 12 -17 0 -25 5
-23 12 3 7 -2 19 -9 27 -15 14 -31 9 -123 -41 -19 -11 -59 -31 -88 -45 -41
-19 -52 -29 -47 -42 13 -31 12 -45 -7 -98 l-20 -53 24 -20 c23 -19 23 -19 53
14 17 17 41 37 55 42 22 10 28 7 56 -25 30 -33 34 -35 58 -22 26 15 39 11 121
-37 48 -29 118 -40 178 -30 28 5 56 14 61 19 6 5 19 9 31 9 27 0 110 44 162
86 23 19 46 34 51 34 5 0 13 7 16 16 3 8 10 12 16 9 5 -3 10 -1 10 4 0 6 10
10 23 9 12 0 40 4 62 10 35 9 63 10 112 4 7 -1 27 -17 45 -34 18 -18 37 -33
41 -33 4 0 12 -7 17 -15 8 -13 10 -12 10 3 0 9 4 17 9 17 9 0 10 51 1 60 -11
11 -28 70 -20 70 8 0 8 46 -1 54 -2 2 -17 6 -34 8 -33 4 -115 47 -115 60 0 9
-18 9 -38 1z"/>
<path d="M1246 415 c4 -8 12 -15 20 -15 19 0 18 16 -2 24 -22 9 -24 8 -18 -9z"/>
<path d="M1540 249 c0 -5 11 -15 25 -21 14 -6 25 -15 25 -20 0 -5 5 -6 10 -3
6 3 10 0 10 -8 0 -19 58 -60 76 -53 9 3 34 -3 57 -14 47 -23 47 -23 47 -10 0
6 -6 10 -14 10 -8 0 -16 7 -20 15 -3 8 -45 34 -93 57 -121 58 -123 59 -123 47z"/>
</g>
</svg>
